<?xml version="1.0" encoding="utf-8"?>
<svg xmlns="http://www.w3.org/2000/svg" viewBox="0 0 256 256" width="256px" height="256px" xmlns:bx="https://boxy-svg.com">
  <defs>
    <bx:guide x="24" y="24" angle="0"/>
    <bx:guide x="232" y="24" angle="90"/>
    <bx:guide x="232" y="232" angle="0"/>
    <bx:guide x="232" y="232" angle="90"/>
    <bx:export>
      <bx:file format="svg" path="back_view.svg" excluded="true"/>
    </bx:export>
  </defs>
  <g transform="matrix(3.455034, 0, 0, 3.455035, -316.58347, -32.171952)" style="">
    <path d="M 115.974 59.642 C 116.188 59.856 116.534 59.856 116.747 59.642 L 117.327 59.062 C 117.54 58.849 117.54 58.501 117.327 58.289 L 116.747 57.709 C 116.533 57.495 116.187 57.495 115.974 57.709 L 115.394 58.289 C 115.181 58.502 115.18 58.849 115.394 59.062 L 115.974 59.642 Z" style="stroke-width: 1; fill: rgb(31, 31, 31);"/>
    <path d="M 119.833 45.927 L 120.653 45.927 C 120.956 45.927 121.201 45.683 121.201 45.38 L 121.201 44.561 C 121.201 44.258 120.956 44.013 120.653 44.013 L 119.833 44.013 C 119.531 44.013 119.286 44.258 119.286 44.561 L 119.286 45.38 C 119.286 45.683 119.531 45.927 119.833 45.927 Z" style="stroke-width: 1; fill: rgb(31, 31, 31);"/>
    <path d="M 105.146 70.47 C 105.359 70.684 105.706 70.684 105.919 70.47 L 106.499 69.889 C 106.713 69.676 106.713 69.329 106.499 69.117 L 105.919 68.537 C 105.705 68.323 105.358 68.323 105.146 68.537 L 104.566 69.117 C 104.351 69.33 104.351 69.677 104.566 69.889 L 105.146 70.47 Z" style="stroke-width: 1; fill: rgb(31, 31, 31);"/>
    <path d="M 119.833 53.584 L 120.653 53.584 C 120.956 53.584 121.201 53.34 121.201 53.037 L 121.201 52.218 C 121.201 51.915 120.956 51.671 120.653 51.671 L 119.833 51.671 C 119.531 51.671 119.286 51.915 119.286 52.218 L 119.286 53.037 C 119.286 53.339 119.531 53.584 119.833 53.584 Z" style="stroke-width: 1; fill: rgb(31, 31, 31);"/>
    <path d="M 102.439 73.176 C 102.652 73.391 102.999 73.391 103.212 73.176 L 103.792 72.596 C 104.005 72.383 104.006 72.036 103.792 71.824 L 103.212 71.244 C 102.998 71.03 102.651 71.03 102.439 71.244 L 101.859 71.824 C 101.646 72.037 101.646 72.384 101.859 72.596 L 102.439 73.176 Z" style="stroke-width: 1; fill: rgb(31, 31, 31);"/>
    <path d="M 113.267 62.349 C 113.481 62.563 113.827 62.563 114.04 62.349 L 114.62 61.769 C 114.834 61.555 114.834 61.208 114.62 60.996 L 114.04 60.416 C 113.826 60.202 113.48 60.202 113.266 60.416 L 112.686 60.996 C 112.473 61.209 112.473 61.556 112.686 61.768 L 113.267 62.349 Z" style="stroke-width: 1; fill: rgb(31, 31, 31);"/>
    <path d="M 118.68 56.935 C 118.895 57.149 119.242 57.149 119.454 56.935 L 120.034 56.355 C 120.247 56.142 120.247 55.795 120.034 55.583 L 119.454 55.002 C 119.241 54.788 118.893 54.788 118.68 55.002 L 118.1 55.581 C 117.887 55.795 117.887 56.143 118.1 56.355 L 118.68 56.935 Z" style="stroke-width: 1; fill: rgb(31, 31, 31);"/>
    <path d="M 110.56 65.056 C 110.773 65.27 111.12 65.27 111.333 65.056 L 111.913 64.475 C 112.127 64.262 112.127 63.915 111.913 63.703 L 111.333 63.123 C 111.119 62.909 110.772 62.909 110.56 63.123 L 109.98 63.703 C 109.767 63.916 109.766 64.263 109.98 64.475 L 110.56 65.056 Z" style="stroke-width: 1; fill: rgb(31, 31, 31);"/>
    <path d="M 107.853 67.762 C 108.066 67.977 108.413 67.977 108.626 67.762 L 109.206 67.182 C 109.42 66.969 109.42 66.622 109.206 66.41 L 108.626 65.83 C 108.412 65.616 108.065 65.616 107.853 65.83 L 107.273 66.41 C 107.058 66.623 107.058 66.97 107.273 67.182 L 107.853 67.762 Z" style="stroke-width: 1; fill: rgb(31, 31, 31);"/>
    <path d="M 119.833 49.755 L 120.653 49.755 C 120.956 49.755 121.201 49.511 121.201 49.208 L 121.201 48.389 C 121.201 48.086 120.956 47.842 120.653 47.842 L 119.833 47.842 C 119.531 47.842 119.286 48.086 119.286 48.389 L 119.286 49.208 C 119.286 49.511 119.531 49.755 119.833 49.755 Z" style="stroke-width: 1; fill: rgb(31, 31, 31);"/>
    <path d="M 119.833 42.099 L 120.653 42.099 C 120.956 42.099 121.201 41.854 121.201 41.552 L 121.201 40.732 C 121.201 40.429 120.956 40.185 120.653 40.185 L 119.833 40.185 C 119.531 40.185 119.286 40.429 119.286 40.732 L 119.286 41.552 C 119.286 41.854 119.531 42.099 119.833 42.099 Z" style="stroke-width: 1; fill: rgb(31, 31, 31);"/>
    <path d="M 119.833 34.442 L 120.653 34.442 C 120.956 34.442 121.201 34.198 121.201 33.896 L 121.201 33.076 C 121.201 32.773 120.956 32.529 120.653 32.529 L 119.833 32.529 C 119.531 32.529 119.286 32.773 119.286 33.076 L 119.286 33.896 C 119.286 34.198 119.531 34.442 119.833 34.442 Z" style="stroke-width: 1; fill: rgb(31, 31, 31);"/>
    <path d="M 119.833 30.614 L 120.653 30.614 C 120.956 30.614 121.201 30.37 121.201 30.067 L 121.201 29.248 C 121.201 28.945 120.956 28.7 120.653 28.7 L 119.833 28.7 C 119.531 28.7 119.286 28.945 119.286 29.248 L 119.286 30.067 C 119.286 30.37 119.531 30.614 119.833 30.614 Z" style="stroke-width: 1; fill: rgb(31, 31, 31);"/>
    <path d="M 119.833 26.786 L 120.653 26.786 C 120.956 26.786 121.201 26.542 121.201 26.24 L 121.201 25.419 C 121.201 25.117 120.956 24.872 120.653 24.872 L 119.833 24.872 C 119.531 24.872 119.286 25.117 119.286 25.419 L 119.286 26.24 C 119.286 26.542 119.531 26.786 119.833 26.786 Z" style="stroke-width: 1; fill: rgb(31, 31, 31);"/>
    <path d="M 119.833 22.958 L 120.653 22.958 C 120.956 22.958 121.201 22.713 121.201 22.411 L 121.201 21.591 C 121.201 21.288 120.956 21.044 120.653 21.044 L 119.833 21.044 C 119.531 21.044 119.286 21.288 119.286 21.591 L 119.286 22.411 C 119.286 22.713 119.531 22.958 119.833 22.958 Z" style="stroke-width: 1; fill: rgb(31, 31, 31);"/>
    <path d="M 149.588 54.381 C 149.588 54.079 149.343 53.834 149.041 53.834 L 148.221 53.834 C 147.919 53.834 147.673 54.079 147.673 54.381 L 147.673 55.201 C 147.673 55.503 147.919 55.748 148.221 55.748 L 149.041 55.748 C 149.343 55.748 149.588 55.503 149.588 55.201 L 149.588 54.381 Z" style="stroke-width: 1; fill: rgb(31, 31, 31);"/>
    <path d="M 141.932 54.381 C 141.932 54.079 141.687 53.834 141.384 53.834 L 140.564 53.834 C 140.263 53.834 140.017 54.079 140.017 54.381 L 140.017 55.201 C 140.017 55.503 140.263 55.748 140.564 55.748 L 141.384 55.748 C 141.687 55.748 141.932 55.503 141.932 55.201 L 141.932 54.381 Z" style="stroke-width: 1; fill: rgb(31, 31, 31);"/>
    <path d="M 145.76 54.381 C 145.76 54.079 145.515 53.834 145.213 53.834 L 144.392 53.834 C 144.091 53.834 143.845 54.079 143.845 54.381 L 143.845 55.201 C 143.845 55.503 144.091 55.748 144.392 55.748 L 145.213 55.748 C 145.515 55.748 145.76 55.503 145.76 55.201 L 145.76 54.381 Z" style="stroke-width: 1; fill: rgb(31, 31, 31);"/>
    <path d="M 120.876 54.381 L 120.876 55.201 C 120.876 55.503 121.12 55.748 121.422 55.748 L 122.243 55.748 C 122.544 55.748 122.79 55.503 122.79 55.201 L 122.79 54.381 C 122.79 54.079 122.544 53.834 122.243 53.834 L 121.422 53.834 C 121.12 53.835 120.876 54.08 120.876 54.381 Z" style="stroke-width: 1; fill: rgb(31, 31, 31);"/>
    <path d="M 132.361 55.202 C 132.361 55.504 132.606 55.749 132.908 55.749 L 133.728 55.749 C 134.03 55.749 134.275 55.504 134.275 55.202 L 134.275 54.382 C 134.275 54.08 134.03 53.835 133.728 53.835 L 132.908 53.835 C 132.606 53.835 132.361 54.08 132.361 54.382 L 132.361 55.202 Z" style="stroke-width: 1; fill: rgb(31, 31, 31);"/>
    <path d="M 124.703 55.202 C 124.703 55.504 124.948 55.749 125.25 55.749 L 126.071 55.749 C 126.374 55.749 126.618 55.504 126.618 55.202 L 126.618 54.382 C 126.618 54.08 126.374 53.835 126.071 53.835 L 125.25 53.835 C 124.948 53.835 124.703 54.08 124.703 54.382 L 124.703 55.202 Z" style="stroke-width: 1; fill: rgb(31, 31, 31);"/>
    <path d="M 128.532 55.202 C 128.532 55.504 128.777 55.749 129.079 55.749 L 129.899 55.749 C 130.201 55.749 130.446 55.504 130.446 55.202 L 130.446 54.382 C 130.446 54.08 130.201 53.835 129.899 53.835 L 129.079 53.835 C 128.777 53.835 128.532 54.08 128.532 54.382 L 128.532 55.202 Z" style="stroke-width: 1; fill: rgb(31, 31, 31);"/>
    <path d="M 153.417 54.381 C 153.417 54.079 153.171 53.834 152.869 53.834 L 152.049 53.834 C 151.747 53.834 151.502 54.079 151.502 54.381 L 151.502 55.201 C 151.502 55.503 151.747 55.748 152.049 55.748 L 152.869 55.748 C 153.171 55.748 153.417 55.503 153.417 55.201 L 153.417 54.381 Z" style="stroke-width: 1; fill: rgb(31, 31, 31);"/>
    <path d="M 99.123 76.46 L 136.96 76.46 C 137.261 76.46 137.679 76.287 137.893 76.072 L 158.39 55.575 C 158.605 55.361 158.778 54.943 158.778 54.641 L 158.778 16.805 C 158.778 16.503 158.533 16.258 158.231 16.258 L 120.394 16.258 C 120.093 16.258 119.674 16.431 119.461 16.645 L 98.963 37.142 C 98.75 37.356 98.576 37.774 98.576 38.076 L 98.576 75.912 C 98.576 76.214 98.822 76.46 99.123 76.46 Z M 138.068 72.644 L 138.068 55.392 C 138.089 55.331 138.103 55.269 138.103 55.202 L 138.103 54.382 C 138.103 54.315 138.089 54.252 138.068 54.192 L 138.068 51.895 L 154.436 51.895 C 154.705 51.895 154.923 51.677 154.923 51.409 L 154.923 21.465 L 156.477 19.912 C 156.691 19.698 156.863 19.77 156.863 20.072 L 156.863 53.847 L 156.862 53.861 C 156.811 53.845 156.756 53.834 156.699 53.834 L 155.877 53.834 C 155.574 53.834 155.33 54.079 155.33 54.381 L 155.33 55.201 C 155.33 55.398 155.434 55.57 155.592 55.666 L 138.453 72.804 C 138.24 73.018 138.068 72.946 138.068 72.644 Z M 102.231 36.582 L 119.701 19.112 C 119.745 19.122 119.789 19.13 119.834 19.13 L 120.654 19.13 C 120.957 19.13 121.202 18.885 121.202 18.583 L 121.202 18.173 L 154.963 18.173 C 155.266 18.173 155.337 18.346 155.123 18.559 L 153.537 20.145 L 123.141 20.113 L 123.141 36.969 L 121.202 36.969 L 121.202 36.905 C 121.202 36.602 120.957 36.358 120.654 36.358 L 119.834 36.358 C 119.532 36.358 119.287 36.602 119.287 36.905 L 119.287 36.969 L 102.391 36.969 C 102.089 36.968 102.018 36.796 102.231 36.582 Z M 101.037 38.882 L 123.141 38.882 L 123.141 51.407 C 123.141 51.676 123.359 51.893 123.629 51.893 L 136.152 51.893 L 136.152 73.999 C 136.152 74.301 135.908 74.545 135.605 74.545 L 101.097 74.545 L 101.085 74.531 L 100.505 73.951 L 100.491 73.939 L 100.491 39.429 C 100.491 39.129 100.736 38.882 101.037 38.882 Z" style="stroke-width: 1; fill: rgb(31, 31, 31);"/>
  </g>
</svg>