<?xml version="1.0" encoding="utf-8"?>
<svg xmlns="http://www.w3.org/2000/svg" viewBox="0 0 256 256" width="256px" height="256px">
  <path fill="#000000" d="M 97.44 139.733 L 100.273 139.733 C 101.32 139.733 102.163 138.89 102.163 137.843 L 102.163 135.014 C 102.163 133.967 101.32 133.124 100.273 133.124 L 97.44 133.124 C 96.397 133.124 95.554 133.967 95.554 135.014 L 95.554 137.843 C 95.554 138.89 96.397 139.733 97.44 139.733 Z" style="stroke-width: 1;"/>
  <path fill="#000000" d="M 97.44 126.507 L 100.273 126.507 C 101.32 126.507 102.163 125.664 102.163 124.618 L 102.163 121.788 C 102.163 120.741 101.32 119.894 100.273 119.894 L 97.44 119.894 C 96.397 119.894 95.554 120.741 95.554 121.788 L 95.554 124.618 C 95.554 125.664 96.397 126.507 97.44 126.507 Z" style="stroke-width: 1;"/>
  <path fill="#000000" d="M 97.44 60.375 L 100.273 60.375 C 101.32 60.375 102.163 59.532 102.163 58.488 L 102.163 55.652 C 102.163 54.608 101.32 53.762 100.273 53.762 L 97.44 53.762 C 96.397 53.762 95.554 54.608 95.554 55.652 L 95.554 58.488 C 95.554 59.532 96.397 60.375 97.44 60.375 Z" style="stroke-width: 1;"/>
  <path fill="#000000" d="M 97.44 113.282 L 100.273 113.282 C 101.32 113.282 102.163 112.435 102.163 111.392 L 102.163 108.559 C 102.163 107.512 101.32 106.669 100.273 106.669 L 97.44 106.669 C 96.397 106.669 95.554 107.512 95.554 108.559 L 95.554 111.392 C 95.554 112.435 96.397 113.282 97.44 113.282 Z" style="stroke-width: 1;"/>
  <path fill="#000000" d="M 97.44 86.826 L 100.273 86.826 C 101.32 86.826 102.163 85.983 102.163 84.94 L 102.163 82.107 C 102.163 81.06 101.32 80.217 100.273 80.217 L 97.44 80.217 C 96.397 80.217 95.554 81.06 95.554 82.107 L 95.554 84.94 C 95.554 85.983 96.397 86.826 97.44 86.826 Z" style="stroke-width: 1;"/>
  <path fill="#000000" d="M 97.44 73.6 L 100.273 73.6 C 101.32 73.6 102.163 72.757 102.163 71.711 L 102.163 68.881 C 102.163 67.834 101.32 66.988 100.273 66.988 L 97.44 66.988 C 96.397 66.988 95.554 67.834 95.554 68.881 L 95.554 71.711 C 95.554 72.757 96.397 73.6 97.44 73.6 Z" style="stroke-width: 1;"/>
  <path fill="#000000" d="M 97.44 152.963 L 100.273 152.963 C 101.32 152.963 102.163 152.12 102.163 151.073 L 102.163 148.243 C 102.163 147.196 101.32 146.353 100.273 146.353 L 97.44 146.353 C 96.397 146.353 95.554 147.196 95.554 148.243 L 95.554 151.073 C 95.554 152.116 96.397 152.963 97.44 152.963 Z" style="stroke-width: 1;"/>
  <path fill="#000000" d="M 46.693 211.304 C 47.432 212.044 48.631 212.044 49.363 211.304 L 51.367 209.297 C 52.107 208.561 52.107 207.362 51.367 206.63 L 49.36 204.626 C 48.624 203.886 47.425 203.886 46.693 204.626 L 44.689 206.63 C 43.949 207.366 43.949 208.564 44.689 209.297 L 46.693 211.304 Z" style="stroke-width: 1;"/>
  <path fill="#000000" d="M 56.045 201.948 C 56.785 202.691 57.984 202.691 58.716 201.948 L 60.72 199.944 C 61.459 199.208 61.459 198.009 60.72 197.277 L 58.716 195.273 C 57.977 194.534 56.778 194.534 56.045 195.273 L 54.042 197.277 C 53.302 198.013 53.302 199.212 54.042 199.944 L 56.045 201.948 Z" style="stroke-width: 1;"/>
  <path fill="#000000" d="M 37.34 220.654 C 38.079 221.396 39.275 221.396 40.007 220.654 L 42.015 218.65 C 42.754 217.914 42.754 216.715 42.015 215.982 L 40.007 213.979 C 39.271 213.239 38.076 213.239 37.34 213.979 L 35.336 215.982 C 34.597 216.718 34.597 217.917 35.336 218.65 L 37.34 220.654 Z" style="stroke-width: 1;"/>
  <path fill="#000000" d="M 97.44 47.149 L 100.273 47.149 C 101.32 47.149 102.163 46.302 102.163 45.259 L 102.163 42.426 C 102.163 41.379 101.32 40.536 100.273 40.536 L 97.44 40.536 C 96.397 40.536 95.554 41.379 95.554 42.426 L 95.554 45.259 C 95.554 46.302 96.397 47.149 97.44 47.149 Z" style="stroke-width: 1;"/>
  <path fill="#000000" d="M 84.104 173.893 C 84.843 174.633 86.039 174.633 86.775 173.893 L 88.778 171.889 C 89.518 171.153 89.518 169.951 88.778 169.219 L 86.775 167.215 C 86.035 166.475 84.84 166.475 84.104 167.215 L 82.1 169.219 C 81.364 169.954 81.364 171.153 82.1 171.889 L 84.104 173.893 Z" style="stroke-width: 1;"/>
  <path fill="#000000" d="M 65.398 192.599 C 66.134 193.338 67.333 193.338 68.069 192.599 L 70.073 190.591 C 70.812 189.855 70.812 188.657 70.073 187.924 L 68.069 185.92 C 67.33 185.181 66.131 185.181 65.398 185.92 L 63.394 187.924 C 62.658 188.66 62.658 189.859 63.394 190.591 L 65.398 192.599 Z" style="stroke-width: 1;"/>
  <path fill="#000000" d="M 93.457 164.54 C 94.196 165.28 95.391 165.28 96.127 164.54 L 98.131 162.537 C 98.871 161.801 98.871 160.602 98.131 159.869 L 96.127 157.862 C 95.388 157.122 94.192 157.122 93.457 157.862 L 91.453 159.862 C 90.713 160.602 90.713 161.804 91.453 162.537 L 93.457 164.54 Z" style="stroke-width: 1;"/>
  <path fill="#000000" d="M 74.751 183.246 C 75.487 183.985 76.686 183.985 77.422 183.246 L 79.426 181.242 C 80.165 180.503 80.165 179.304 79.426 178.571 L 77.422 176.567 C 76.682 175.828 75.483 175.828 74.751 176.567 L 72.747 178.571 C 72.004 179.307 72.004 180.506 72.747 181.239 L 74.751 183.246 Z" style="stroke-width: 1;"/>
  <path fill="#000000" d="M 140.721 158.553 C 140.721 159.596 141.568 160.443 142.611 160.443 L 145.444 160.443 C 146.491 160.443 147.334 159.596 147.334 158.553 L 147.334 155.72 C 147.334 154.676 146.491 153.83 145.444 153.83 L 142.611 153.83 C 141.568 153.83 140.721 154.676 140.721 155.72 L 140.721 158.553 Z" style="stroke-width: 1;"/>
  <path fill="#000000" d="M 200.245 155.716 C 200.245 154.673 199.402 153.826 198.355 153.826 L 195.522 153.826 C 194.478 153.826 193.628 154.673 193.628 155.716 L 193.628 158.549 C 193.628 159.593 194.478 160.439 195.522 160.439 L 198.355 160.439 C 199.402 160.439 200.245 159.593 200.245 158.549 L 200.245 155.716 Z" style="stroke-width: 1;"/>
  <path fill="#000000" d="M 213.471 155.716 C 213.471 154.673 212.624 153.826 211.581 153.826 L 208.748 153.826 C 207.704 153.826 206.861 154.673 206.861 155.716 L 206.861 158.549 C 206.861 159.593 207.704 160.439 208.748 160.439 L 211.581 160.439 C 212.624 160.439 213.471 159.593 213.471 158.549 L 213.471 155.716 Z" style="stroke-width: 1;"/>
  <path fill="#000000" d="M 127.496 158.553 C 127.496 159.596 128.339 160.443 129.385 160.443 L 132.219 160.443 C 133.265 160.443 134.108 159.596 134.108 158.553 L 134.108 155.72 C 134.108 154.676 133.265 153.83 132.219 153.83 L 129.385 153.83 C 128.339 153.83 127.496 154.676 127.496 155.72 L 127.496 158.553 Z" style="stroke-width: 1;"/>
  <path fill="#000000" d="M 173.786 155.716 C 173.786 154.673 172.943 153.826 171.896 153.826 L 169.063 153.826 C 168.02 153.826 167.173 154.673 167.173 155.716 L 167.173 158.549 C 167.173 159.593 168.02 160.439 169.063 160.439 L 171.896 160.439 C 172.943 160.439 173.786 159.593 173.786 158.549 L 173.786 155.716 Z" style="stroke-width: 1;"/>
  <path fill="#000000" d="M 101.044 155.716 L 101.044 158.549 C 101.044 159.593 101.887 160.439 102.934 160.439 L 105.763 160.439 C 106.81 160.439 107.653 159.593 107.653 158.549 L 107.653 155.716 C 107.653 154.673 106.81 153.826 105.763 153.826 L 102.934 153.826 C 101.887 153.83 101.044 154.676 101.044 155.716 Z" style="stroke-width: 1;"/>
  <path fill="#000000" d="M 187.019 155.716 C 187.019 154.673 186.172 153.826 185.129 153.826 L 182.292 153.826 C 181.252 153.826 180.406 154.673 180.406 155.716 L 180.406 158.549 C 180.406 159.593 181.252 160.439 182.292 160.439 L 185.129 160.439 C 186.172 160.439 187.019 159.593 187.019 158.549 L 187.019 155.716 Z" style="stroke-width: 1;"/>
  <path fill="#000000" d="M 114.27 158.553 C 114.27 159.596 115.113 160.443 116.156 160.443 L 118.993 160.443 C 120.036 160.443 120.883 159.596 120.883 158.553 L 120.883 155.72 C 120.883 154.676 120.036 153.83 118.993 153.83 L 116.156 153.83 C 115.113 153.83 114.27 154.676 114.27 155.72 L 114.27 158.553 Z" style="stroke-width: 1;"/>
  <path fill="#000000" d="M 25.886 232 L 156.611 232 C 157.658 232 159.099 231.402 159.842 230.659 L 230.659 159.842 C 231.399 159.102 231.997 157.658 231.997 156.615 L 231.997 25.89 C 231.997 24.846 231.15 24 230.107 24 L 99.378 24 C 98.332 24 96.887 24.598 96.151 25.337 L 25.334 96.155 C 24.594 96.894 24 98.339 24 99.382 L 24 230.107 C 24 231.15 24.843 232 25.886 232 Z M 160.439 218.816 L 160.439 213.111 L 207.849 165.705 C 208.492 165.059 208.274 164.537 207.362 164.537 L 160.439 164.537 L 160.439 159.209 C 160.512 158.999 160.56 158.784 160.56 158.553 L 160.56 155.72 C 160.56 155.488 160.512 155.271 160.439 155.063 L 160.439 102.122 C 160.439 101.078 161.037 99.631 161.776 98.895 L 224.043 36.628 C 224.779 35.889 225.38 36.138 225.38 37.181 L 225.38 153.875 L 225.377 153.923 C 225.194 153.868 225.01 153.83 224.807 153.83 L 221.973 153.83 C 220.93 153.83 220.084 154.676 220.084 155.72 L 220.084 158.553 C 220.084 159.234 220.446 159.828 220.989 160.159 L 161.776 219.368 C 161.037 220.108 160.439 219.859 160.439 218.816 Z M 36.621 94.22 L 96.984 33.861 C 97.133 33.895 97.281 33.923 97.44 33.923 L 100.273 33.923 C 101.32 33.923 102.163 33.076 102.163 32.033 L 102.163 30.616 L 218.816 30.616 C 219.859 30.616 220.108 31.214 219.368 31.95 L 157.095 94.22 C 156.359 94.959 154.915 95.557 153.868 95.557 L 102.163 95.557 L 102.163 95.336 C 102.163 94.289 101.32 93.446 100.273 93.446 L 97.44 93.446 C 96.397 93.446 95.554 94.289 95.554 95.336 L 95.554 95.557 L 37.174 95.557 C 36.134 95.554 35.885 94.959 36.621 94.22 Z M 32.503 102.167 L 151.936 102.167 C 152.98 102.167 153.826 103.017 153.826 104.057 L 153.826 164.537 L 105.38 164.537 C 104.468 164.537 103.207 165.059 102.567 165.705 L 48.147 220.122 C 47.498 220.768 47.719 221.289 48.631 221.289 L 150.613 221.289 C 151.529 221.289 152.79 220.768 153.432 220.122 L 153.83 219.721 L 153.83 223.497 C 153.83 224.541 152.983 225.384 151.94 225.384 L 32.707 225.384 L 32.665 225.335 L 30.661 223.331 L 30.609 223.29 L 30.609 104.057 C 30.609 103.02 31.459 102.167 32.503 102.167 Z" style="stroke-width: 1;"/>
</svg>