<?xml version="1.0" encoding="utf-8"?>
<svg xmlns="http://www.w3.org/2000/svg" viewBox="0 0 256 256" width="256px" height="256px" xmlns:bx="https://boxy-svg.com">
  <g transform="matrix(3.455092, 0, 0, 3.455035, -366.902197, -97.959276)" style="">
    <path d="M 134.395 41.999 L 135.215 41.999 C 135.517 41.999 135.762 41.754 135.762 41.452 L 135.762 40.632 C 135.762 40.329 135.517 40.085 135.215 40.085 L 134.395 40.085 C 134.093 40.085 133.848 40.329 133.848 40.632 L 133.848 41.452 C 133.848 41.754 134.093 41.999 134.395 41.999 Z" style="stroke-width: 1; fill: rgb(31, 31, 31);"/>
    <path d="M 134.395 49.655 L 135.215 49.655 C 135.517 49.655 135.762 49.411 135.762 49.108 L 135.762 48.289 C 135.762 47.986 135.517 47.741 135.215 47.741 L 134.395 47.741 C 134.093 47.741 133.848 47.986 133.848 48.289 L 133.848 49.108 C 133.848 49.411 134.093 49.655 134.395 49.655 Z" style="stroke-width: 1; fill: rgb(31, 31, 31);"/>
    <path d="M 134.395 53.483 L 135.215 53.483 C 135.517 53.483 135.762 53.239 135.762 52.937 L 135.762 52.117 C 135.762 51.814 135.517 51.57 135.215 51.57 L 134.395 51.57 C 134.093 51.57 133.848 51.814 133.848 52.117 L 133.848 52.937 C 133.848 53.239 134.093 53.483 134.395 53.483 Z" style="stroke-width: 1; fill: rgb(31, 31, 31);"/>
    <path d="M 134.395 45.827 L 135.215 45.827 C 135.517 45.827 135.762 45.583 135.762 45.281 L 135.762 44.46 C 135.762 44.158 135.517 43.913 135.215 43.913 L 134.395 43.913 C 134.093 43.913 133.848 44.158 133.848 44.46 L 133.848 45.281 C 133.848 45.583 134.093 45.827 134.395 45.827 Z" style="stroke-width: 1; fill: rgb(31, 31, 31);"/>
    <path d="M 160.321 73.422 C 160.321 73.12 160.077 72.875 159.774 72.875 L 158.954 72.875 C 158.652 72.875 158.408 73.12 158.408 73.422 L 158.408 74.242 C 158.408 74.544 158.652 74.789 158.954 74.789 L 159.774 74.789 C 160.077 74.789 160.321 74.544 160.321 74.242 L 160.321 73.422 Z" style="stroke-width: 1; fill: rgb(31, 31, 31);"/>
    <path d="M 156.492 73.422 C 156.492 73.12 156.247 72.875 155.945 72.875 L 155.125 72.875 C 154.823 72.875 154.578 73.12 154.578 73.422 L 154.578 74.242 C 154.578 74.544 154.823 74.789 155.125 74.789 L 155.945 74.789 C 156.247 74.789 156.492 74.544 156.492 74.242 L 156.492 73.422 Z" style="stroke-width: 1; fill: rgb(31, 31, 31);"/>
    <path d="M 164.149 73.422 C 164.149 73.12 163.904 72.875 163.602 72.875 L 162.783 72.875 C 162.48 72.875 162.236 73.12 162.236 73.422 L 162.236 74.242 C 162.236 74.544 162.48 74.789 162.783 74.789 L 163.602 74.789 C 163.904 74.789 164.149 74.544 164.149 74.242 L 164.149 73.422 Z" style="stroke-width: 1; fill: rgb(31, 31, 31);"/>
    <path d="M 167.978 73.422 C 167.978 73.12 167.732 72.875 167.43 72.875 L 166.61 72.875 C 166.308 72.875 166.064 73.12 166.064 73.422 L 166.064 74.242 C 166.064 74.544 166.308 74.789 166.61 74.789 L 167.43 74.789 C 167.732 74.789 167.978 74.544 167.978 74.242 L 167.978 73.422 Z" style="stroke-width: 1; fill: rgb(31, 31, 31);"/>
    <path d="M 149.348 59.769 C 149.348 59.504 149.133 59.29 148.869 59.29 L 135.467 59.29 C 135.391 59.25 135.306 59.226 135.215 59.226 L 134.395 59.226 C 134.304 59.226 134.22 59.25 134.143 59.29 L 116.898 59.29 C 116.633 59.29 116.419 59.504 116.419 59.769 L 116.419 90.866 C 116.208 91.079 116.208 91.424 116.419 91.637 L 116.419 91.74 C 116.419 92.006 116.634 92.219 116.898 92.219 L 117.002 92.219 C 117.215 92.431 117.56 92.431 117.773 92.219 L 148.868 92.219 C 149.133 92.219 149.347 92.005 149.347 91.74 L 149.347 59.769 L 149.348 59.769 Z" style="stroke-width: 1; fill: rgb(31, 31, 31);"/>
    <path d="M 113.685 95.501 L 151.521 95.501 C 151.824 95.501 152.242 95.328 152.455 95.113 L 172.953 74.616 C 173.166 74.402 173.339 73.984 173.339 73.682 L 173.339 35.846 C 173.339 35.544 173.095 35.299 172.793 35.299 L 134.956 35.299 C 134.653 35.299 134.233 35.469 134.017 35.68 L 113.53 55.628 C 113.314 55.839 113.138 56.255 113.138 56.557 L 113.138 94.953 C 113.138 95.255 113.382 95.501 113.685 95.501 Z M 150.167 93.586 L 115.657 93.586 L 115.645 93.572 L 115.066 92.992 L 115.051 92.98 L 115.051 58.47 C 115.051 58.169 115.296 57.923 115.598 57.923 L 150.166 57.923 C 150.468 57.923 150.713 58.169 150.713 58.47 L 150.713 93.04 C 150.714 93.341 150.469 93.586 150.167 93.586 Z M 152.628 91.685 L 152.628 74.433 C 152.65 74.372 152.664 74.31 152.664 74.243 L 152.664 73.423 C 152.664 73.356 152.65 73.293 152.628 73.233 L 152.628 57.91 C 152.628 57.608 152.802 57.189 153.015 56.976 L 171.037 38.954 C 171.252 38.74 171.425 38.812 171.425 39.114 L 171.425 72.889 L 171.423 72.903 C 171.371 72.887 171.317 72.876 171.259 72.876 L 170.439 72.876 C 170.136 72.876 169.892 73.121 169.892 73.423 L 169.892 74.243 C 169.892 74.44 169.996 74.612 170.153 74.708 L 153.015 91.845 C 152.802 92.059 152.628 91.987 152.628 91.685 Z M 116.364 55.627 L 134.245 38.148 C 134.293 38.161 134.343 38.17 134.394 38.17 L 135.214 38.17 C 135.516 38.17 135.761 37.925 135.761 37.623 L 135.761 37.213 L 169.523 37.213 C 169.826 37.213 169.897 37.386 169.684 37.599 L 151.661 55.623 C 151.447 55.837 151.029 56.01 150.727 56.01 L 135.762 56.01 L 135.762 55.946 C 135.762 55.643 135.517 55.399 135.215 55.399 L 134.395 55.399 C 134.093 55.399 133.848 55.643 133.848 55.946 L 133.848 56.01 L 116.521 56.01 C 116.22 56.009 116.15 55.838 116.364 55.627 Z" style="stroke-width: 1; fill: rgb(31, 31, 31);"/>
  </g>
</svg>
