<?xml version="1.0" encoding="utf-8"?>
<svg xmlns="http://www.w3.org/2000/svg" viewBox="0 0 256 256" width="256px" height="256px" xmlns:bx="https://boxy-svg.com">
  <defs>
    <bx:guide x="24" y="24" angle="0"/>
    <bx:guide x="232" y="24" angle="90"/>
    <bx:guide x="232" y="232" angle="0"/>
    <bx:guide x="232" y="232" angle="90"/>
    <bx:export>
      <bx:file format="svg" path="back_view.svg" excluded="true"/>
    </bx:export>
  </defs>
  <g transform="matrix(3.455035, 0, 0, 3.455034, -403.657355, -96.024438)" style="">
    <path d="M 135.763 83.537 C 135.976 83.751 136.323 83.751 136.535 83.537 L 137.115 82.956 C 137.329 82.743 137.329 82.396 137.115 82.184 L 136.535 81.604 C 136.322 81.39 135.975 81.39 135.763 81.604 L 135.182 82.184 C 134.968 82.397 134.968 82.744 135.182 82.956 L 135.763 83.537 Z" style="stroke-width: 1; fill: rgb(31, 31, 31);"/>
    <path d="M 138.47 80.83 C 138.683 81.044 139.03 81.044 139.242 80.83 L 139.822 80.25 C 140.036 80.036 140.036 79.689 139.822 79.477 L 139.242 78.897 C 139.029 78.683 138.682 78.683 138.469 78.897 L 137.889 79.477 C 137.675 79.69 137.675 80.037 137.889 80.249 L 138.47 80.83 Z" style="stroke-width: 1; fill: rgb(31, 31, 31);"/>
    <path d="M 145.036 52.923 L 145.856 52.923 C 146.159 52.923 146.403 52.679 146.403 52.377 L 146.403 51.557 C 146.403 51.254 146.159 51.01 145.856 51.01 L 145.036 51.01 C 144.734 51.01 144.488 51.254 144.488 51.557 L 144.488 52.377 C 144.488 52.679 144.734 52.923 145.036 52.923 Z" style="stroke-width: 1; fill: rgb(31, 31, 31);"/>
    <path d="M 141.177 78.123 C 141.39 78.337 141.737 78.337 141.949 78.123 L 142.529 77.543 C 142.743 77.33 142.743 76.982 142.529 76.77 L 141.949 76.19 C 141.736 75.976 141.388 75.976 141.177 76.19 L 140.596 76.77 C 140.382 76.983 140.382 77.33 140.596 77.543 L 141.177 78.123 Z" style="stroke-width: 1; fill: rgb(31, 31, 31);"/>
    <path d="M 145.036 41.439 L 145.856 41.439 C 146.159 41.439 146.403 41.194 146.403 40.892 L 146.403 40.072 C 146.403 39.769 146.159 39.525 145.856 39.525 L 145.036 39.525 C 144.734 39.525 144.488 39.769 144.488 40.072 L 144.488 40.892 C 144.488 41.194 144.734 41.439 145.036 41.439 Z" style="stroke-width: 1; fill: rgb(31, 31, 31);"/>
    <path d="M 145.036 49.095 L 145.856 49.095 C 146.159 49.095 146.403 48.851 146.403 48.548 L 146.403 47.729 C 146.403 47.426 146.159 47.181 145.856 47.181 L 145.036 47.181 C 144.734 47.181 144.488 47.426 144.488 47.729 L 144.488 48.548 C 144.488 48.851 144.734 49.095 145.036 49.095 Z" style="stroke-width: 1; fill: rgb(31, 31, 31);"/>
    <path d="M 145.036 45.267 L 145.856 45.267 C 146.159 45.267 146.403 45.023 146.403 44.721 L 146.403 43.9 C 146.403 43.598 146.159 43.353 145.856 43.353 L 145.036 43.353 C 144.734 43.353 144.488 43.598 144.488 43.9 L 144.488 44.721 C 144.488 45.023 144.734 45.267 145.036 45.267 Z" style="stroke-width: 1; fill: rgb(31, 31, 31);"/>
    <path d="M 133.055 86.243 C 133.269 86.458 133.616 86.458 133.828 86.243 L 134.409 85.663 C 134.622 85.45 134.622 85.103 134.409 84.891 L 133.828 84.311 C 133.615 84.097 133.268 84.097 133.055 84.311 L 132.476 84.891 C 132.261 85.104 132.261 85.451 132.476 85.663 L 133.055 86.243 Z" style="stroke-width: 1; fill: rgb(31, 31, 31);"/>
    <path d="M 145.036 68.236 L 145.856 68.236 C 146.159 68.236 146.403 67.992 146.403 67.689 L 146.403 66.87 C 146.403 66.567 146.159 66.323 145.856 66.323 L 145.036 66.323 C 144.734 66.323 144.488 66.567 144.488 66.87 L 144.488 67.689 C 144.488 67.992 144.734 68.236 145.036 68.236 Z" style="stroke-width: 1; fill: rgb(31, 31, 31);"/>
    <path d="M 145.036 72.065 L 145.856 72.065 C 146.159 72.065 146.403 71.821 146.403 71.518 L 146.403 70.699 C 146.403 70.396 146.159 70.152 145.856 70.152 L 145.036 70.152 C 144.734 70.152 144.488 70.396 144.488 70.699 L 144.488 71.518 C 144.488 71.82 144.734 72.065 145.036 72.065 Z" style="stroke-width: 1; fill: rgb(31, 31, 31);"/>
    <path d="M 145.036 64.408 L 145.856 64.408 C 146.159 64.408 146.403 64.164 146.403 63.861 L 146.403 63.042 C 146.403 62.739 146.159 62.494 145.856 62.494 L 145.036 62.494 C 144.734 62.494 144.488 62.739 144.488 63.042 L 144.488 63.861 C 144.488 64.164 144.734 64.408 145.036 64.408 Z" style="stroke-width: 1; fill: rgb(31, 31, 31);"/>
    <path d="M 127.641 91.657 C 127.855 91.872 128.202 91.872 128.414 91.657 L 128.994 91.077 C 129.207 90.864 129.207 90.517 128.994 90.305 L 128.414 89.725 C 128.201 89.511 127.854 89.511 127.641 89.725 L 127.061 90.305 C 126.848 90.518 126.848 90.865 127.061 91.077 L 127.641 91.657 Z" style="stroke-width: 1; fill: rgb(31, 31, 31);"/>
    <path d="M 143.884 75.416 C 144.097 75.63 144.444 75.63 144.656 75.416 L 145.236 74.836 C 145.45 74.623 145.45 74.276 145.236 74.064 L 144.655 73.483 C 144.442 73.269 144.096 73.269 143.883 73.483 L 143.303 74.062 C 143.089 74.276 143.089 74.624 143.303 74.836 L 143.884 75.416 Z" style="stroke-width: 1; fill: rgb(31, 31, 31);"/>
    <path d="M 145.036 60.58 L 145.856 60.58 C 146.159 60.58 146.403 60.335 146.403 60.033 L 146.403 59.213 C 146.403 58.91 146.159 58.666 145.856 58.666 L 145.036 58.666 C 144.734 58.666 144.488 58.91 144.488 59.213 L 144.488 60.033 C 144.488 60.335 144.734 60.58 145.036 60.58 Z" style="stroke-width: 1; fill: rgb(31, 31, 31);"/>
    <path d="M 130.348 88.951 C 130.562 89.165 130.909 89.165 131.121 88.951 L 131.701 88.37 C 131.914 88.157 131.914 87.81 131.701 87.598 L 131.121 87.018 C 130.908 86.804 130.561 86.804 130.348 87.018 L 129.768 87.598 C 129.554 87.811 129.554 88.158 129.768 88.37 L 130.348 88.951 Z" style="stroke-width: 1; fill: rgb(31, 31, 31);"/>
    <path d="M 150.727 73.683 C 150.727 73.985 150.971 74.23 151.274 74.23 L 152.094 74.23 C 152.396 74.23 152.641 73.985 152.641 73.683 L 152.641 72.863 C 152.641 72.561 152.396 72.316 152.094 72.316 L 151.274 72.316 C 150.971 72.316 150.727 72.561 150.727 72.863 L 150.727 73.683 Z" style="stroke-width: 1; fill: rgb(31, 31, 31);"/>
    <path d="M 147.445 74.23 L 148.265 74.23 C 148.567 74.23 148.812 73.985 148.812 73.683 L 148.812 72.863 C 148.812 72.561 148.567 72.316 148.265 72.316 L 147.445 72.316 C 147.142 72.316 146.898 72.561 146.898 72.863 L 146.898 73.683 C 146.899 73.985 147.143 74.23 147.445 74.23 Z" style="stroke-width: 1; fill: rgb(31, 31, 31);"/>
    <path d="M 154.555 73.683 C 154.555 73.985 154.799 74.23 155.102 74.23 L 155.923 74.23 C 156.225 74.23 156.47 73.985 156.47 73.683 L 156.47 72.863 C 156.47 72.561 156.225 72.316 155.923 72.316 L 155.102 72.316 C 154.799 72.316 154.555 72.561 154.555 72.863 L 154.555 73.683 Z" style="stroke-width: 1; fill: rgb(31, 31, 31);"/>
    <path d="M 171.782 72.862 C 171.782 72.56 171.537 72.315 171.236 72.315 L 170.415 72.315 C 170.112 72.315 169.868 72.56 169.868 72.862 L 169.868 73.682 C 169.868 73.984 170.112 74.229 170.415 74.229 L 171.236 74.229 C 171.537 74.229 171.782 73.984 171.782 73.682 L 171.782 72.862 Z" style="stroke-width: 1; fill: rgb(31, 31, 31);"/>
    <path d="M 175.61 72.862 C 175.61 72.56 175.366 72.315 175.063 72.315 L 174.244 72.315 C 173.941 72.315 173.696 72.56 173.696 72.862 L 173.696 73.682 C 173.696 73.984 173.941 74.229 174.244 74.229 L 175.063 74.229 C 175.366 74.229 175.61 73.984 175.61 73.682 L 175.61 72.862 Z" style="stroke-width: 1; fill: rgb(31, 31, 31);"/>
    <path d="M 167.953 72.862 C 167.953 72.56 167.709 72.315 167.406 72.315 L 166.587 72.315 C 166.284 72.315 166.04 72.56 166.04 72.862 L 166.04 73.682 C 166.04 73.984 166.284 74.229 166.587 74.229 L 167.406 74.229 C 167.709 74.229 167.953 73.984 167.953 73.682 L 167.953 72.862 Z" style="stroke-width: 1; fill: rgb(31, 31, 31);"/>
    <path d="M 179.439 72.862 C 179.439 72.56 179.194 72.315 178.893 72.315 L 178.073 72.315 C 177.77 72.315 177.526 72.56 177.526 72.862 L 177.526 73.682 C 177.526 73.984 177.77 74.229 178.073 74.229 L 178.893 74.229 C 179.194 74.229 179.439 73.984 179.439 73.682 L 179.439 72.862 Z" style="stroke-width: 1; fill: rgb(31, 31, 31);"/>
    <path d="M 158.383 73.683 C 158.383 73.985 158.628 74.23 158.931 74.23 L 159.751 74.23 C 160.053 74.23 160.297 73.985 160.297 73.683 L 160.297 72.863 C 160.297 72.561 160.053 72.316 159.751 72.316 L 158.931 72.316 C 158.628 72.316 158.383 72.561 158.383 72.863 L 158.383 73.683 Z" style="stroke-width: 1; fill: rgb(31, 31, 31);"/>
    <path d="M 124.326 94.941 L 162.162 94.941 C 162.464 94.941 162.882 94.768 163.096 94.553 L 183.593 74.056 C 183.807 73.842 183.98 73.424 183.98 73.122 L 183.98 35.286 C 183.98 34.984 183.735 34.739 183.433 34.739 L 145.597 34.739 C 145.295 34.739 144.877 34.912 144.663 35.126 L 124.166 55.623 C 123.951 55.837 123.778 56.255 123.778 56.557 L 123.778 94.393 C 123.778 94.695 124.025 94.941 124.326 94.941 Z M 163.27 91.125 L 163.27 74.23 L 163.58 74.23 C 163.882 74.23 164.127 73.985 164.127 73.683 L 164.127 72.863 C 164.127 72.561 163.882 72.316 163.58 72.316 L 163.27 72.316 L 163.27 57.35 C 163.27 57.048 163.443 56.629 163.657 56.416 L 181.68 38.394 C 181.893 38.18 182.066 38.252 182.066 38.554 L 182.066 72.329 C 182.066 72.632 181.893 73.05 181.68 73.263 L 163.656 91.285 C 163.442 91.499 163.27 91.427 163.27 91.125 Z M 127.434 55.063 L 144.905 37.593 C 144.947 37.603 144.991 37.611 145.037 37.611 L 145.857 37.611 C 146.16 37.611 146.404 37.366 146.404 37.064 L 146.404 36.654 L 180.166 36.654 C 180.468 36.654 180.54 36.827 180.326 37.04 L 162.303 55.063 C 162.09 55.277 161.671 55.45 161.369 55.45 L 146.403 55.45 L 146.403 55.386 C 146.403 55.083 146.159 54.839 145.856 54.839 L 145.036 54.839 C 144.734 54.839 144.488 55.083 144.488 55.386 L 144.488 55.45 L 142.664 55.45 L 142.664 43.572 C 142.664 43.327 142.523 43.269 142.351 43.442 L 130.344 55.449 L 127.594 55.449 C 127.292 55.449 127.22 55.277 127.434 55.063 Z M 125.693 57.91 C 125.693 57.609 125.937 57.363 126.24 57.363 L 128.43 57.363 L 127.769 58.024 C 127.596 58.197 127.456 58.535 127.456 58.779 L 127.456 86.107 C 127.456 86.352 127.598 86.411 127.772 86.24 L 142.346 71.971 C 142.521 71.8 142.662 71.464 142.662 71.219 L 142.662 57.363 L 160.809 57.363 C 161.11 57.363 161.356 57.609 161.356 57.91 L 161.356 92.48 C 161.356 92.782 161.11 93.026 160.809 93.026 L 126.24 93.026 C 125.937 93.026 125.693 92.782 125.693 92.48 L 125.693 57.91 Z" style="stroke-width: 1; fill: rgb(31, 31, 31);"/>
  </g>
</svg>