<?xml version="1.0" encoding="utf-8"?>
<svg xmlns="http://www.w3.org/2000/svg" viewBox="0 0 256 256" width="256px" height="256px" xmlns:bx="https://boxy-svg.com">
  <defs>
    <bx:guide x="232" y="24" angle="0"/>
    <bx:guide x="24" y="23.97" angle="90"/>
    <bx:guide x="24" y="232" angle="0"/>
    <bx:guide x="232" y="232" angle="90"/>
    <linearGradient id="color-0" bx:pinned="true" gradientUnits="userSpaceOnUse" gradientTransform="matrix(1.17302, 0, 0, 0.652096, -81944.282471, -1475.377097)">
      <title>BASE</title>
      <stop style="stop-color: rgb(31, 31, 31);"/>
    </linearGradient>
    <bx:guide x="-810.4" y="664.8" angle="90"/>
    <bx:guide x="24" y="24" angle="90" color="blue"/>
    <bx:guide x="23.97" y="232" angle="0" color="blue"/>
    <bx:guide x="232" y="232" angle="90" color="blue"/>
    <bx:guide x="232" y="24" angle="0" color="blue"/>
    <bx:guide x="127.397" y="30" angle="90"/>
    <bx:guide x="128" y="226" angle="90"/>
  </defs>
  <g style="transform-origin: 128px 128px;" transform="matrix(1.000001, -0.000001, 0.000001, 1.000001, -0.000001, -0.000001)">
    <circle style="stroke: url(&quot;#color-0&quot;); fill: none; stroke-width: 4px;" cx="128" cy="128" r="8"/>
    <rect x="125" y="36" width="6" height="82.564" style="fill: url(&quot;#color-0&quot;);"/>
    <circle style="fill: url(&quot;#color-0&quot;);" cx="128" cy="36" r="6"/>
    <rect x="-131" y="-220" width="6" height="83.055" style="fill: url(&quot;#color-0&quot;); stroke-width: 1;" transform="matrix(-1, 0, 0, -1, 0, 0)"/>
    <circle style="fill: url(&quot;#color-0&quot;); stroke-width: 1;" cx="-128" cy="-220" r="6" transform="matrix(-1, 0, 0, -1, 0, 0)"/>
  </g>
  <g transform="matrix(4.869986, 0, 0, 4.869986, 11.825035, 121.295305)" style="">
    <path d="M6 13c-.55 0-1 .45-1 1s.45 1 1 1 1-.45 1-1-.45-1-1-1zm0 4c-.55 0-1 .45-1 1s.45 1 1 1 1-.45 1-1-.45-1-1-1zm0-8c-.55 0-1 .45-1 1s.45 1 1 1 1-.45 1-1-.45-1-1-1zm-3 .5c-.28 0-.5.22-.5.5s.22.5.5.5.5-.22.5-.5-.22-.5-.5-.5zM6 5c-.55 0-1 .45-1 1s.45 1 1 1 1-.45 1-1-.45-1-1-1zm15 5.5c.28 0 .5-.22.5-.5s-.22-.5-.5-.5-.5.22-.5.5.22.5.5.5zM14 7c.55 0 1-.45 1-1s-.45-1-1-1-1 .45-1 1 .45 1 1 1zm0-3.5c.28 0 .5-.22.5-.5s-.22-.5-.5-.5-.5.22-.5.5.22.5.5.5zm-11 10c-.28 0-.5.22-.5.5s.22.5.5.5.5-.22.5-.5-.22-.5-.5-.5zm7 7c-.28 0-.5.22-.5.5s.22.5.5.5.5-.22.5-.5-.22-.5-.5-.5zm0-17c.28 0 .5-.22.5-.5s-.22-.5-.5-.5-.5.22-.5.5.22.5.5.5zM10 7c.55 0 1-.45 1-1s-.45-1-1-1-1 .45-1 1 .45 1 1 1zm0 5.5c-.83 0-1.5.67-1.5 1.5s.67 1.5 1.5 1.5 1.5-.67 1.5-1.5-.67-1.5-1.5-1.5zm8 .5c-.55 0-1 .45-1 1s.45 1 1 1 1-.45 1-1-.45-1-1-1zm0 4c-.55 0-1 .45-1 1s.45 1 1 1 1-.45 1-1-.45-1-1-1zm0-8c-.55 0-1 .45-1 1s.45 1 1 1 1-.45 1-1-.45-1-1-1zm0-4c-.55 0-1 .45-1 1s.45 1 1 1 1-.45 1-1-.45-1-1-1zm3 8.5c-.28 0-.5.22-.5.5s.22.5.5.5.5-.22.5-.5-.22-.5-.5-.5zM14 17c-.55 0-1 .45-1 1s.45 1 1 1 1-.45 1-1-.45-1-1-1zm0 3.5c-.28 0-.5.22-.5.5s.22.5.5.5.5-.22.5-.5-.22-.5-.5-.5zm-4-12c-.83 0-1.5.67-1.5 1.5s.67 1.5 1.5 1.5 1.5-.67 1.5-1.5-.67-1.5-1.5-1.5zm0 8.5c-.55 0-1 .45-1 1s.45 1 1 1 1-.45 1-1-.45-1-1-1zm4-4.5c-.83 0-1.5.67-1.5 1.5s.67 1.5 1.5 1.5 1.5-.67 1.5-1.5-.67-1.5-1.5-1.5zm0-4c-.83 0-1.5.67-1.5 1.5s.67 1.5 1.5 1.5 1.5-.67 1.5-1.5-.67-1.5-1.5-1.5z"/>
  </g>
  <g transform="matrix(4.869986, 0, 0, 4.869986, 11.825034, 17.825035)" style="">
    <path d="M6 13c-.55 0-1 .45-1 1s.45 1 1 1 1-.45 1-1-.45-1-1-1zm0 4c-.55 0-1 .45-1 1s.45 1 1 1 1-.45 1-1-.45-1-1-1zm0-8c-.55 0-1 .45-1 1s.45 1 1 1 1-.45 1-1-.45-1-1-1zm-3 .5c-.28 0-.5.22-.5.5s.22.5.5.5.5-.22.5-.5-.22-.5-.5-.5zM6 5c-.55 0-1 .45-1 1s.45 1 1 1 1-.45 1-1-.45-1-1-1zm15 5.5c.28 0 .5-.22.5-.5s-.22-.5-.5-.5-.5.22-.5.5.22.5.5.5zM14 7c.55 0 1-.45 1-1s-.45-1-1-1-1 .45-1 1 .45 1 1 1zm0-3.5c.28 0 .5-.22.5-.5s-.22-.5-.5-.5-.5.22-.5.5.22.5.5.5zm-11 10c-.28 0-.5.22-.5.5s.22.5.5.5.5-.22.5-.5-.22-.5-.5-.5zm7 7c-.28 0-.5.22-.5.5s.22.5.5.5.5-.22.5-.5-.22-.5-.5-.5zm0-17c.28 0 .5-.22.5-.5s-.22-.5-.5-.5-.5.22-.5.5.22.5.5.5zM10 7c.55 0 1-.45 1-1s-.45-1-1-1-1 .45-1 1 .45 1 1 1zm0 5.5c-.83 0-1.5.67-1.5 1.5s.67 1.5 1.5 1.5 1.5-.67 1.5-1.5-.67-1.5-1.5-1.5zm8 .5c-.55 0-1 .45-1 1s.45 1 1 1 1-.45 1-1-.45-1-1-1zm0 4c-.55 0-1 .45-1 1s.45 1 1 1 1-.45 1-1-.45-1-1-1zm0-8c-.55 0-1 .45-1 1s.45 1 1 1 1-.45 1-1-.45-1-1-1zm0-4c-.55 0-1 .45-1 1s.45 1 1 1 1-.45 1-1-.45-1-1-1zm3 8.5c-.28 0-.5.22-.5.5s.22.5.5.5.5-.22.5-.5-.22-.5-.5-.5zM14 17c-.55 0-1 .45-1 1s.45 1 1 1 1-.45 1-1-.45-1-1-1zm0 3.5c-.28 0-.5.22-.5.5s.22.5.5.5.5-.22.5-.5-.22-.5-.5-.5zm-4-12c-.83 0-1.5.67-1.5 1.5s.67 1.5 1.5 1.5 1.5-.67 1.5-1.5-.67-1.5-1.5-1.5zm0 8.5c-.55 0-1 .45-1 1s.45 1 1 1 1-.45 1-1-.45-1-1-1zm4-4.5c-.83 0-1.5.67-1.5 1.5s.67 1.5 1.5 1.5 1.5-.67 1.5-1.5-.67-1.5-1.5-1.5zm0-4c-.83 0-1.5.67-1.5 1.5s.67 1.5 1.5 1.5 1.5-.67 1.5-1.5-.67-1.5-1.5-1.5z"/>
  </g>
  <g transform="matrix(4.869986, 0, 0, 4.869986, 127.295298, 121.295298)" style="">
    <path d="M 6 13 C 5.45 13 5 13.45 5 14 C 5 14.55 5.45 15 6 15 C 6.55 15 7 14.55 7 14 C 7 13.45 6.55 13 6 13 Z M 6 17 C 5.45 17 5 17.45 5 18 C 5 18.55 5.45 19 6 19 C 6.55 19 7 18.55 7 18 C 7 17.45 6.55 17 6 17 Z M 6 9 C 5.45 9 5 9.45 5 10 C 5 10.55 5.45 11 6 11 C 6.55 11 7 10.55 7 10 C 7 9.45 6.55 9 6 9 Z M 6 5 C 5.45 5 5 5.45 5 6 C 5 6.55 5.45 7 6 7 C 6.55 7 7 6.55 7 6 C 7 5.45 6.55 5 6 5 Z M 14 7 C 14.55 7 15 6.55 15 6 C 15 5.45 14.55 5 14 5 C 13.45 5 13 5.45 13 6 C 13 6.55 13.45 7 14 7 Z M 10 7 C 10.55 7 11 6.55 11 6 C 11 5.45 10.55 5 10 5 C 9.45 5 9 5.45 9 6 C 9 6.55 9.45 7 10 7 Z M 10 12.5 C 9.17 12.5 8.5 13.17 8.5 14 C 8.5 14.83 9.17 15.5 10 15.5 C 10.83 15.5 11.5 14.83 11.5 14 C 11.5 13.17 10.83 12.5 10 12.5 Z M 18 13 C 17.45 13 17 13.45 17 14 C 17 14.55 17.45 15 18 15 C 18.55 15 19 14.55 19 14 C 19 13.45 18.55 13 18 13 Z M 18 17 C 17.45 17 17 17.45 17 18 C 17 18.55 17.45 19 18 19 C 18.55 19 19 18.55 19 18 C 19 17.45 18.55 17 18 17 Z M 18 9 C 17.45 9 17 9.45 17 10 C 17 10.55 17.45 11 18 11 C 18.55 11 19 10.55 19 10 C 19 9.45 18.55 9 18 9 Z M 18 5 C 17.45 5 17 5.45 17 6 C 17 6.55 17.45 7 18 7 C 18.55 7 19 6.55 19 6 C 19 5.45 18.55 5 18 5 Z M 14 17 C 13.45 17 13 17.45 13 18 C 13 18.55 13.45 19 14 19 C 14.55 19 15 18.55 15 18 C 15 17.45 14.55 17 14 17 Z M 10 8.5 C 9.17 8.5 8.5 9.17 8.5 10 C 8.5 10.83 9.17 11.5 10 11.5 C 10.83 11.5 11.5 10.83 11.5 10 C 11.5 9.17 10.83 8.5 10 8.5 Z M 10 17 C 9.45 17 9 17.45 9 18 C 9 18.55 9.45 19 10 19 C 10.55 19 11 18.55 11 18 C 11 17.45 10.55 17 10 17 Z M 14 12.5 C 13.17 12.5 12.5 13.17 12.5 14 C 12.5 14.83 13.17 15.5 14 15.5 C 14.83 15.5 15.5 14.83 15.5 14 C 15.5 13.17 14.83 12.5 14 12.5 Z M 14 8.5 C 13.17 8.5 12.5 9.17 12.5 10 C 12.5 10.83 13.17 11.5 14 11.5 C 14.83 11.5 15.5 10.83 15.5 10 C 15.5 9.17 14.83 8.5 14 8.5 Z"/>
  </g>
  <g transform="matrix(4.869986, 0, 0, 4.869986, 127.295298, 17.825028)" style="">
    <path d="M 6 13 C 5.45 13 5 13.45 5 14 C 5 14.55 5.45 15 6 15 C 6.55 15 7 14.55 7 14 C 7 13.45 6.55 13 6 13 Z M 6 17 C 5.45 17 5 17.45 5 18 C 5 18.55 5.45 19 6 19 C 6.55 19 7 18.55 7 18 C 7 17.45 6.55 17 6 17 Z M 6 9 C 5.45 9 5 9.45 5 10 C 5 10.55 5.45 11 6 11 C 6.55 11 7 10.55 7 10 C 7 9.45 6.55 9 6 9 Z M 6 5 C 5.45 5 5 5.45 5 6 C 5 6.55 5.45 7 6 7 C 6.55 7 7 6.55 7 6 C 7 5.45 6.55 5 6 5 Z M 14 7 C 14.55 7 15 6.55 15 6 C 15 5.45 14.55 5 14 5 C 13.45 5 13 5.45 13 6 C 13 6.55 13.45 7 14 7 Z M 10 7 C 10.55 7 11 6.55 11 6 C 11 5.45 10.55 5 10 5 C 9.45 5 9 5.45 9 6 C 9 6.55 9.45 7 10 7 Z M 10 12.5 C 9.17 12.5 8.5 13.17 8.5 14 C 8.5 14.83 9.17 15.5 10 15.5 C 10.83 15.5 11.5 14.83 11.5 14 C 11.5 13.17 10.83 12.5 10 12.5 Z M 18 13 C 17.45 13 17 13.45 17 14 C 17 14.55 17.45 15 18 15 C 18.55 15 19 14.55 19 14 C 19 13.45 18.55 13 18 13 Z M 18 17 C 17.45 17 17 17.45 17 18 C 17 18.55 17.45 19 18 19 C 18.55 19 19 18.55 19 18 C 19 17.45 18.55 17 18 17 Z M 18 9 C 17.45 9 17 9.45 17 10 C 17 10.55 17.45 11 18 11 C 18.55 11 19 10.55 19 10 C 19 9.45 18.55 9 18 9 Z M 18 5 C 17.45 5 17 5.45 17 6 C 17 6.55 17.45 7 18 7 C 18.55 7 19 6.55 19 6 C 19 5.45 18.55 5 18 5 Z M 14 17 C 13.45 17 13 17.45 13 18 C 13 18.55 13.45 19 14 19 C 14.55 19 15 18.55 15 18 C 15 17.45 14.55 17 14 17 Z M 10 8.5 C 9.17 8.5 8.5 9.17 8.5 10 C 8.5 10.83 9.17 11.5 10 11.5 C 10.83 11.5 11.5 10.83 11.5 10 C 11.5 9.17 10.83 8.5 10 8.5 Z M 10 17 C 9.45 17 9 17.45 9 18 C 9 18.55 9.45 19 10 19 C 10.55 19 11 18.55 11 18 C 11 17.45 10.55 17 10 17 Z M 14 12.5 C 13.17 12.5 12.5 13.17 12.5 14 C 12.5 14.83 13.17 15.5 14 15.5 C 14.83 15.5 15.5 14.83 15.5 14 C 15.5 13.17 14.83 12.5 14 12.5 Z M 14 8.5 C 13.17 8.5 12.5 9.17 12.5 10 C 12.5 10.83 13.17 11.5 14 11.5 C 14.83 11.5 15.5 10.83 15.5 10 C 15.5 9.17 14.83 8.5 14 8.5 Z"/>
  </g>
</svg>