<?xml version="1.0" encoding="utf-8"?>
<svg xmlns="http://www.w3.org/2000/svg" viewBox="0 0 256 256" width="256px" height="256px" xmlns:bx="https://boxy-svg.com">
  <g transform="matrix(1.670531, 0, 0, 1.670531, -43.812047, 28.167057)" style="">
    <path d="M 110.213 27.103 C 110.213 22.563 105.555 22.086 102.095 22.086 L 95.188 22.086 L 95.188 32.245 L 101.894 32.245 C 105.515 32.245 110.213 31.731 110.213 27.103 Z" style="stroke-width: 1;"/>
    <path d="M 73.616 41.637 C 78.416 41.633 83.181 42.455 87.702 44.067 L 87.702 21.054 C 87.586 19.79 87.974 18.53 88.782 17.551 C 89.76 16.74 91.02 16.349 92.285 16.465 L 104.464 16.465 C 105.904 16.452 107.345 16.524 108.777 16.681 C 113.881 17.206 117.77 21.491 117.8 26.621 C 117.924 29.045 117.085 31.419 115.466 33.226 C 113.518 35.08 111.054 36.302 108.399 36.73 C 108.867 36.628 110.229 37.942 110.571 38.236 C 111.228 38.805 111.843 39.421 112.413 40.077 C 114.594 42.581 116.365 45.414 117.662 48.47 C 118.466 50.366 118.904 52.508 116.714 53.636 C 115.448 54.272 113.942 54.206 112.737 53.462 C 111.147 52.364 110.205 50.372 109.239 48.764 C 107.499 45.861 105.957 42.663 103.696 40.113 C 102.218 38.427 100.05 37.508 97.811 37.618 L 95.189 37.618 L 95.189 47.618 C 102.723 52.145 108.657 58.911 112.161 66.972 C 136.546 59.915 144.147 29.107 125.843 11.517 C 107.539 -6.073 77.058 2.748 70.977 27.395 C 69.817 32.094 69.706 36.992 70.652 41.739 C 71.63 41.673 72.62 41.637 73.616 41.637 Z" style="stroke-width: 1;"/>
    <path d="M 136.379 71.987 C 134.439 71.272 132.373 70.959 130.308 71.069 L 124.231 71.069 L 124.231 80.62 L 131.088 80.62 C 134.321 80.62 138.371 79.72 138.371 75.706 C 138.371 73.841 137.711 72.599 136.379 71.987 Z" style="stroke-width: 1;"/>
    <path d="M 124.23 85.991 L 124.23 96.78 L 132.272 96.78 C 137.331 96.78 139.86 94.957 139.861 91.31 C 139.988 89.701 139.236 88.149 137.894 87.251 C 136.091 86.295 134.057 85.858 132.02 85.991 L 124.23 85.991 Z" style="stroke-width: 1;"/>
    <path d="M 141.406 52.268 C 139.209 57.211 136.078 61.684 132.186 65.442 L 133.254 65.442 C 139.103 65.442 145.708 67.811 145.708 74.723 C 145.708 78.418 143.86 81.124 140.165 82.839 C 145.018 84.387 147.446 87.395 147.448 91.862 C 147.448 100.141 139.385 102.403 132.576 102.403 L 121.279 102.403 C 118.298 102.403 116.744 100.777 116.744 97.813 L 116.744 74.956 C 112.328 76.487 107.686 77.265 103.012 77.26 C 101.932 77.26 100.864 77.218 99.802 77.14 C 94.581 101.999 118.228 123.187 142.366 115.28 C 166.505 107.373 173.032 76.3 154.114 59.349 C 150.458 56.072 146.116 53.653 141.406 52.268 Z" style="stroke-width: 1;"/>
    <path d="M 77.714 82.731 L 86.208 82.731 C 87.61 82.625 89.001 83.051 90.102 83.925 C 90.092 75.606 92.567 67.473 97.211 60.571 C 79.46 42.402 48.697 50.262 41.838 74.719 C 34.978 99.177 57.167 121.888 81.777 115.599 C 87.532 114.129 92.783 111.132 96.977 106.926 C 94.333 102.91 92.405 98.467 91.278 93.794 L 91.278 94.202 C 91.37 96.398 90.095 98.423 88.074 99.289 C 84.034 101.542 79.49 102.739 74.864 102.769 C 67.251 102.769 60.094 99.025 57.334 91.604 C 55.503 86.488 55.488 80.898 57.292 75.772 C 58.945 71.173 62.557 67.546 67.149 65.874 C 74.108 63.306 85.272 63.888 89.238 71.261 C 90.162 72.989 90.684 75.148 89.094 76.666 C 87.543 78.116 85.079 77.91 83.791 76.222 C 81.547 72.713 79.093 70.325 74.714 70.325 C 67.461 70.325 63.598 76.87 63.598 83.457 C 63.598 87.795 64.594 91.132 66.585 93.47 C 68.681 95.851 71.751 97.142 74.918 96.973 C 78.254 96.9 81.519 95.999 84.421 94.352 L 84.421 88.353 L 78.619 88.353 C 76.7 88.353 74.384 87.945 74.384 85.575 C 74.384 83.733 76.034 82.731 77.714 82.731 Z" style="stroke-width: 1;"/>
  </g>
</svg>
