<?xml version="1.0" encoding="utf-8"?>
<svg xmlns="http://www.w3.org/2000/svg" viewBox="0 0 256 256" width="256px" height="256px" xmlns:bx="https://boxy-svg.com">
  <defs>
    <bx:guide x="24" y="24" angle="0"/>
    <bx:guide x="232" y="24" angle="90"/>
    <bx:guide x="232" y="232" angle="0"/>
    <bx:guide x="232" y="232" angle="90"/>
    <bx:export>
      <bx:file format="svg" path="back_view.svg" excluded="true"/>
    </bx:export>
  </defs>
  <g transform="matrix(3.455035, 0, 0, 3.455034, -268.209599, -84.415529)" style="">
    <path d="M 85.122 91.581 L 122.959 91.581 C 123.261 91.581 123.679 91.408 123.893 91.193 L 144.39 70.696 C 144.604 70.482 144.777 70.064 144.777 69.762 L 144.777 31.926 C 144.777 31.624 144.533 31.379 144.23 31.379 L 106.394 31.379 C 106.092 31.379 105.674 31.552 105.46 31.766 L 84.963 52.263 C 84.749 52.477 84.575 52.895 84.575 53.197 L 84.575 91.033 C 84.575 91.335 84.821 91.581 85.122 91.581 Z M 142.864 68.969 C 142.864 69.272 142.69 69.69 142.476 69.903 L 124.453 87.925 C 124.24 88.139 124.066 88.067 124.066 87.765 L 124.066 70.513 C 124.088 70.452 124.102 70.39 124.102 70.323 L 124.102 69.503 C 124.102 69.436 124.088 69.373 124.066 69.313 L 124.066 53.99 C 124.066 53.688 124.24 53.269 124.453 53.056 L 142.476 35.034 C 142.69 34.82 142.864 34.892 142.864 35.194 L 142.864 68.969 Z M 88.231 51.703 L 106.253 33.68 C 106.466 33.467 106.884 33.294 107.187 33.294 L 140.962 33.294 C 141.265 33.294 141.335 33.467 141.122 33.68 L 123.1 51.703 C 122.886 51.917 122.468 52.09 122.165 52.09 L 107.2 52.09 L 107.2 52.026 C 107.2 51.723 106.956 51.479 106.653 51.479 L 105.833 51.479 C 105.531 51.479 105.285 51.723 105.285 52.026 L 105.285 52.09 L 88.391 52.09 C 88.089 52.089 88.017 51.917 88.231 51.703 Z M 86.49 54.55 C 86.49 54.249 86.734 54.003 87.037 54.003 L 121.606 54.003 C 121.908 54.003 122.153 54.249 122.153 54.55 L 122.153 89.12 C 122.153 89.422 121.908 89.666 121.606 89.666 L 87.037 89.666 C 86.734 89.666 86.49 89.422 86.49 89.12 L 86.49 54.55 Z" style="stroke-width: 1; fill: rgb(31, 31, 31);"/>
    <path d="M 91.145 85.591 C 91.359 85.805 91.705 85.805 91.919 85.591 L 92.499 85.01 C 92.712 84.797 92.712 84.45 92.499 84.238 L 91.918 83.658 C 91.704 83.444 91.358 83.444 91.145 83.658 L 90.565 84.238 C 90.352 84.451 90.352 84.798 90.565 85.01 L 91.145 85.591 Z" style="stroke-width: 1; fill: rgb(31, 31, 31);"/>
    <path d="M 88.438 88.297 C 88.652 88.512 88.998 88.512 89.211 88.297 L 89.792 87.717 C 90.005 87.504 90.005 87.157 89.792 86.945 L 89.211 86.365 C 88.997 86.151 88.651 86.151 88.438 86.365 L 87.858 86.945 C 87.645 87.158 87.645 87.505 87.858 87.717 L 88.438 88.297 Z" style="stroke-width: 1; fill: rgb(31, 31, 31);"/>
    <path d="M 105.833 45.735 L 106.653 45.735 C 106.956 45.735 107.2 45.491 107.2 45.188 L 107.2 44.369 C 107.2 44.066 106.956 43.821 106.653 43.821 L 105.833 43.821 C 105.531 43.821 105.285 44.066 105.285 44.369 L 105.285 45.188 C 105.285 45.491 105.531 45.735 105.833 45.735 Z" style="stroke-width: 1; fill: rgb(31, 31, 31);"/>
    <path d="M 105.833 57.22 L 106.653 57.22 C 106.956 57.22 107.2 56.975 107.2 56.673 L 107.2 55.853 C 107.2 55.55 106.956 55.306 106.653 55.306 L 105.833 55.306 C 105.531 55.306 105.285 55.55 105.285 55.853 L 105.285 56.673 C 105.285 56.975 105.531 57.22 105.833 57.22 Z" style="stroke-width: 1; fill: rgb(31, 31, 31);"/>
    <path d="M 93.852 82.883 C 94.066 83.098 94.413 83.098 94.626 82.883 L 95.206 82.303 C 95.419 82.09 95.419 81.743 95.206 81.531 L 94.625 80.951 C 94.412 80.737 94.065 80.737 93.852 80.951 L 93.272 81.531 C 93.059 81.744 93.059 82.091 93.272 82.303 L 93.852 82.883 Z" style="stroke-width: 1; fill: rgb(31, 31, 31);"/>
    <path d="M 105.833 41.907 L 106.653 41.907 C 106.956 41.907 107.2 41.663 107.2 41.361 L 107.2 40.54 C 107.2 40.238 106.956 39.993 106.653 39.993 L 105.833 39.993 C 105.531 39.993 105.285 40.238 105.285 40.54 L 105.285 41.361 C 105.285 41.663 105.531 41.907 105.833 41.907 Z" style="stroke-width: 1; fill: rgb(31, 31, 31);"/>
    <path d="M 105.833 61.048 L 106.653 61.048 C 106.956 61.048 107.2 60.804 107.2 60.501 L 107.2 59.682 C 107.2 59.379 106.956 59.134 106.653 59.134 L 105.833 59.134 C 105.531 59.134 105.285 59.379 105.285 59.682 L 105.285 60.501 C 105.285 60.804 105.531 61.048 105.833 61.048 Z" style="stroke-width: 1; fill: rgb(31, 31, 31);"/>
    <path d="M 105.833 38.079 L 106.653 38.079 C 106.956 38.079 107.2 37.834 107.2 37.532 L 107.2 36.712 C 107.2 36.409 106.956 36.165 106.653 36.165 L 105.833 36.165 C 105.531 36.165 105.285 36.409 105.285 36.712 L 105.285 37.532 C 105.285 37.834 105.531 38.079 105.833 38.079 Z" style="stroke-width: 1; fill: rgb(31, 31, 31);"/>
    <path d="M 105.833 49.563 L 106.653 49.563 C 106.956 49.563 107.2 49.319 107.2 49.017 L 107.2 48.197 C 107.2 47.894 106.956 47.65 106.653 47.65 L 105.833 47.65 C 105.531 47.65 105.285 47.894 105.285 48.197 L 105.285 49.017 C 105.285 49.319 105.531 49.563 105.833 49.563 Z" style="stroke-width: 1; fill: rgb(31, 31, 31);"/>
    <path d="M 99.266 77.47 C 99.48 77.684 99.827 77.684 100.039 77.47 L 100.62 76.89 C 100.834 76.676 100.834 76.329 100.62 76.117 L 100.039 75.537 C 99.826 75.323 99.479 75.323 99.266 75.537 L 98.686 76.117 C 98.473 76.33 98.473 76.677 98.686 76.889 L 99.266 77.47 Z" style="stroke-width: 1; fill: rgb(31, 31, 31);"/>
    <path d="M 96.559 80.177 C 96.773 80.391 97.12 80.391 97.332 80.177 L 97.912 79.596 C 98.127 79.383 98.127 79.036 97.912 78.824 L 97.332 78.244 C 97.119 78.03 96.772 78.03 96.559 78.244 L 95.979 78.824 C 95.766 79.037 95.766 79.384 95.979 79.596 L 96.559 80.177 Z" style="stroke-width: 1; fill: rgb(31, 31, 31);"/>
    <path d="M 101.973 74.763 C 102.187 74.977 102.534 74.977 102.746 74.763 L 103.326 74.183 C 103.54 73.97 103.54 73.622 103.326 73.41 L 102.746 72.83 C 102.533 72.616 102.186 72.616 101.973 72.83 L 101.394 73.41 C 101.18 73.623 101.18 73.97 101.394 74.183 L 101.973 74.763 Z" style="stroke-width: 1; fill: rgb(31, 31, 31);"/>
    <path d="M 105.833 68.705 L 106.653 68.705 C 106.956 68.705 107.2 68.461 107.2 68.158 L 107.2 67.339 C 107.2 67.036 106.956 66.792 106.653 66.792 L 105.833 66.792 C 105.531 66.792 105.285 67.036 105.285 67.339 L 105.285 68.158 C 105.285 68.46 105.531 68.705 105.833 68.705 Z" style="stroke-width: 1; fill: rgb(31, 31, 31);"/>
    <path d="M 105.833 64.876 L 106.653 64.876 C 106.956 64.876 107.2 64.632 107.2 64.329 L 107.2 63.51 C 107.2 63.207 106.956 62.963 106.653 62.963 L 105.833 62.963 C 105.531 62.963 105.285 63.207 105.285 63.51 L 105.285 64.329 C 105.285 64.632 105.531 64.876 105.833 64.876 Z" style="stroke-width: 1; fill: rgb(31, 31, 31);"/>
    <path d="M 104.681 72.056 C 104.894 72.27 105.241 72.27 105.453 72.056 L 106.033 71.476 C 106.247 71.263 106.247 70.916 106.033 70.704 L 105.453 70.123 C 105.24 69.909 104.893 69.909 104.681 70.123 L 104.101 70.702 C 103.886 70.916 103.886 71.264 104.101 71.476 L 104.681 72.056 Z" style="stroke-width: 1; fill: rgb(31, 31, 31);"/>
    <path d="M 115.078 70.87 L 115.898 70.87 C 116.2 70.87 116.445 70.625 116.445 70.323 L 116.445 69.503 C 116.445 69.201 116.2 68.956 115.898 68.956 L 115.078 68.956 C 114.776 68.956 114.531 69.201 114.531 69.503 L 114.531 70.323 C 114.531 70.625 114.777 70.87 115.078 70.87 Z" style="stroke-width: 1; fill: rgb(31, 31, 31);"/>
    <path d="M 111.25 70.87 L 112.07 70.87 C 112.372 70.87 112.617 70.625 112.617 70.323 L 112.617 69.503 C 112.617 69.201 112.372 68.956 112.07 68.956 L 111.25 68.956 C 110.948 68.956 110.703 69.201 110.703 69.503 L 110.703 70.323 C 110.703 70.625 110.948 70.87 111.25 70.87 Z" style="stroke-width: 1; fill: rgb(31, 31, 31);"/>
    <path d="M 106.875 69.502 L 106.875 70.322 C 106.875 70.624 107.12 70.869 107.422 70.869 L 108.242 70.869 C 108.544 70.869 108.789 70.624 108.789 70.322 L 108.789 69.502 C 108.789 69.2 108.544 68.955 108.242 68.955 L 107.422 68.955 C 107.12 68.956 106.875 69.201 106.875 69.502 Z" style="stroke-width: 1; fill: rgb(31, 31, 31);"/>
    <path d="M 118.906 70.87 L 119.726 70.87 C 120.028 70.87 120.274 70.625 120.274 70.323 L 120.274 69.503 C 120.274 69.201 120.028 68.956 119.726 68.956 L 118.906 68.956 C 118.604 68.956 118.36 69.201 118.36 69.503 L 118.36 70.323 C 118.361 70.625 118.605 70.87 118.906 70.87 Z" style="stroke-width: 1; fill: rgb(31, 31, 31);"/>
    <path d="M 141.216 38.731 L 125.713 54.235 C 125.529 54.418 125.381 54.778 125.381 55.038 L 125.381 84.09 C 125.381 84.35 125.531 84.414 125.717 84.232 L 141.212 69.063 C 141.399 68.88 141.549 68.523 141.549 68.264 L 141.549 38.869 C 141.549 38.61 141.4 38.547 141.216 38.731 Z" style="stroke-width: 1; fill: rgb(31, 31, 31);"/>
  </g>
</svg>