<?xml version="1.0" encoding="utf-8"?>
<svg xmlns="http://www.w3.org/2000/svg" viewBox="0 0 256 256" width="256px" height="256px" xmlns:bx="https://boxy-svg.com">
  <defs>
    <bx:guide x="24" y="24" angle="0"/>
    <bx:guide x="232" y="24" angle="90"/>
    <bx:guide x="232" y="232" angle="0"/>
    <bx:guide x="232" y="232" angle="90"/>
    <bx:export>
      <bx:file format="svg" path="back_view.svg" excluded="true"/>
    </bx:export>
  </defs>
  <g transform="matrix(3.455092, 0, 0, 3.455035, -357.227941, 20.071627)" style="">
    <path d="M 110.885 61.339 L 148.72 61.339 C 149.023 61.339 149.441 61.166 149.655 60.951 L 170.152 40.454 C 170.366 40.24 170.539 39.822 170.539 39.52 L 170.539 1.684 C 170.539 1.382 170.294 1.137 169.992 1.137 L 132.155 1.137 C 131.852 1.137 131.435 1.31 131.22 1.524 L 110.724 22.021 C 110.51 22.235 110.338 22.653 110.338 22.955 L 110.338 60.791 C 110.338 61.093 110.582 61.339 110.885 61.339 Z M 168.624 38.727 C 168.624 39.03 168.451 39.448 168.237 39.661 L 150.215 57.683 C 150.001 57.897 149.827 57.825 149.827 57.523 L 149.827 40.271 C 149.849 40.21 149.863 40.148 149.863 40.081 L 149.863 39.261 C 149.863 39.194 149.849 39.131 149.827 39.071 L 149.827 23.748 C 149.827 23.446 150.001 23.027 150.215 22.814 L 168.237 4.792 C 168.451 4.578 168.624 4.65 168.624 4.952 L 168.624 38.727 Z M 113.991 21.461 L 132.014 3.438 C 132.228 3.225 132.646 3.052 132.947 3.052 L 166.723 3.052 C 167.025 3.052 167.097 3.225 166.883 3.438 L 148.86 21.461 C 148.647 21.675 148.229 21.848 147.927 21.848 L 114.151 21.848 C 113.85 21.847 113.777 21.675 113.991 21.461 Z M 112.798 23.761 L 147.367 23.761 C 147.668 23.761 147.914 24.007 147.914 24.308 L 147.914 58.878 C 147.914 59.18 147.668 59.424 147.367 59.424 L 112.857 59.424 L 112.845 59.41 L 112.265 58.83 L 112.25 58.818 L 112.25 24.308 C 112.251 24.008 112.496 23.761 112.798 23.761 Z" style="stroke-width: 1; fill: rgb(31, 31, 31);"/>
    <path d="M 122.32 49.935 C 122.534 50.149 122.881 50.149 123.093 49.935 L 123.673 49.354 C 123.887 49.141 123.887 48.794 123.673 48.582 L 123.093 48.002 C 122.88 47.788 122.532 47.788 122.32 48.002 L 121.74 48.582 C 121.526 48.795 121.526 49.142 121.74 49.354 L 122.32 49.935 Z" style="stroke-width: 1; fill: rgb(31, 31, 31);"/>
    <path d="M 131.595 26.978 L 132.415 26.978 C 132.717 26.978 132.961 26.733 132.961 26.431 L 132.961 25.611 C 132.961 25.308 132.717 25.064 132.415 25.064 L 131.595 25.064 C 131.293 25.064 131.048 25.308 131.048 25.611 L 131.048 26.431 C 131.048 26.733 131.293 26.978 131.595 26.978 Z" style="stroke-width: 1; fill: rgb(31, 31, 31);"/>
    <path d="M 125.027 47.228 C 125.24 47.442 125.588 47.442 125.8 47.228 L 126.38 46.648 C 126.594 46.434 126.594 46.087 126.38 45.875 L 125.799 45.295 C 125.586 45.081 125.239 45.081 125.027 45.295 L 124.447 45.875 C 124.233 46.088 124.233 46.435 124.447 46.647 L 125.027 47.228 Z" style="stroke-width: 1; fill: rgb(31, 31, 31);"/>
    <path d="M 119.614 52.641 C 119.827 52.856 120.174 52.856 120.386 52.641 L 120.966 52.061 C 121.18 51.848 121.18 51.501 120.966 51.289 L 120.386 50.709 C 120.173 50.495 119.826 50.495 119.613 50.709 L 119.033 51.289 C 118.819 51.502 118.819 51.849 119.033 52.061 L 119.614 52.641 Z" style="stroke-width: 1; fill: rgb(31, 31, 31);"/>
    <path d="M 116.907 55.349 C 117.12 55.563 117.467 55.563 117.679 55.349 L 118.259 54.768 C 118.473 54.555 118.473 54.208 118.259 53.996 L 117.679 53.416 C 117.466 53.202 117.118 53.202 116.906 53.416 L 116.326 53.996 C 116.112 54.209 116.112 54.556 116.326 54.768 L 116.907 55.349 Z" style="stroke-width: 1; fill: rgb(31, 31, 31);"/>
    <path d="M 114.199 58.055 C 114.413 58.27 114.76 58.27 114.972 58.055 L 115.552 57.475 C 115.766 57.262 115.766 56.915 115.552 56.703 L 114.972 56.123 C 114.758 55.909 114.412 55.909 114.199 56.123 L 113.62 56.703 C 113.405 56.916 113.405 57.263 113.62 57.475 L 114.199 58.055 Z" style="stroke-width: 1; fill: rgb(31, 31, 31);"/>
    <path d="M 131.595 38.463 L 132.415 38.463 C 132.717 38.463 132.961 38.219 132.961 37.916 L 132.961 37.097 C 132.961 36.794 132.717 36.55 132.415 36.55 L 131.595 36.55 C 131.293 36.55 131.048 36.794 131.048 37.097 L 131.048 37.916 C 131.048 38.218 131.293 38.463 131.595 38.463 Z" style="stroke-width: 1; fill: rgb(31, 31, 31);"/>
    <path d="M 130.441 41.814 C 130.654 42.028 131.001 42.028 131.214 41.814 L 131.794 41.234 C 132.008 41.021 132.008 40.674 131.794 40.462 L 131.214 39.881 C 131 39.667 130.653 39.667 130.441 39.881 L 129.861 40.46 C 129.648 40.674 129.648 41.022 129.861 41.234 L 130.441 41.814 Z" style="stroke-width: 1; fill: rgb(31, 31, 31);"/>
    <path d="M 127.734 44.521 C 127.947 44.735 128.294 44.735 128.507 44.521 L 129.087 43.941 C 129.301 43.728 129.301 43.38 129.087 43.168 L 128.507 42.588 C 128.293 42.374 127.946 42.374 127.734 42.588 L 127.154 43.168 C 126.941 43.381 126.941 43.728 127.154 43.941 L 127.734 44.521 Z" style="stroke-width: 1; fill: rgb(31, 31, 31);"/>
    <path d="M 131.595 30.806 L 132.415 30.806 C 132.717 30.806 132.961 30.562 132.961 30.259 L 132.961 29.44 C 132.961 29.137 132.717 28.892 132.415 28.892 L 131.595 28.892 C 131.293 28.892 131.048 29.137 131.048 29.44 L 131.048 30.259 C 131.048 30.562 131.293 30.806 131.595 30.806 Z" style="stroke-width: 1; fill: rgb(31, 31, 31);"/>
    <path d="M 131.595 34.634 L 132.415 34.634 C 132.717 34.634 132.961 34.39 132.961 34.087 L 132.961 33.268 C 132.961 32.965 132.717 32.721 132.415 32.721 L 131.595 32.721 C 131.293 32.721 131.048 32.965 131.048 33.268 L 131.048 34.087 C 131.048 34.39 131.293 34.634 131.595 34.634 Z" style="stroke-width: 1; fill: rgb(31, 31, 31);"/>
    <path d="M 160.802 38.714 L 159.982 38.714 C 159.68 38.714 159.435 38.959 159.435 39.261 L 159.435 40.081 C 159.435 40.383 159.68 40.628 159.982 40.628 L 160.802 40.628 C 161.104 40.628 161.349 40.383 161.349 40.081 L 161.349 39.261 C 161.349 38.959 161.104 38.714 160.802 38.714 Z" style="stroke-width: 1; fill: rgb(31, 31, 31);"/>
    <path d="M 153.145 38.714 L 152.326 38.714 C 152.023 38.714 151.779 38.959 151.779 39.261 L 151.779 40.081 C 151.779 40.383 152.023 40.628 152.326 40.628 L 153.145 40.628 C 153.448 40.628 153.692 40.383 153.692 40.081 L 153.692 39.261 C 153.691 38.959 153.447 38.714 153.145 38.714 Z" style="stroke-width: 1; fill: rgb(31, 31, 31);"/>
    <path d="M 132.637 39.26 L 132.637 40.08 C 132.637 40.382 132.881 40.627 133.184 40.627 L 134.004 40.627 C 134.306 40.627 134.551 40.382 134.551 40.08 L 134.551 39.26 C 134.551 38.958 134.306 38.713 134.004 38.713 L 133.184 38.713 C 132.881 38.714 132.637 38.959 132.637 39.26 Z" style="stroke-width: 1; fill: rgb(31, 31, 31);"/>
    <path d="M 156.974 38.714 L 156.154 38.714 C 155.851 38.714 155.607 38.959 155.607 39.261 L 155.607 40.081 C 155.607 40.383 155.851 40.628 156.154 40.628 L 156.974 40.628 C 157.275 40.628 157.521 40.383 157.521 40.081 L 157.521 39.261 C 157.521 38.959 157.274 38.714 156.974 38.714 Z" style="stroke-width: 1; fill: rgb(31, 31, 31);"/>
    <path d="M 137.012 40.628 L 137.832 40.628 C 138.134 40.628 138.379 40.383 138.379 40.081 L 138.379 39.261 C 138.379 38.959 138.134 38.714 137.832 38.714 L 137.012 38.714 C 136.709 38.714 136.465 38.959 136.465 39.261 L 136.465 40.081 C 136.465 40.383 136.709 40.628 137.012 40.628 Z" style="stroke-width: 1; fill: rgb(31, 31, 31);"/>
    <path d="M 140.84 40.628 L 141.66 40.628 C 141.962 40.628 142.207 40.383 142.207 40.081 L 142.207 39.261 C 142.207 38.959 141.962 38.714 141.66 38.714 L 140.84 38.714 C 140.537 38.714 140.293 38.959 140.293 39.261 L 140.293 40.081 C 140.293 40.383 140.537 40.628 140.84 40.628 Z" style="stroke-width: 1; fill: rgb(31, 31, 31);"/>
    <path d="M 144.668 40.628 L 145.488 40.628 C 145.791 40.628 146.035 40.383 146.035 40.081 L 146.035 39.261 C 146.035 38.959 145.791 38.714 145.488 38.714 L 144.668 38.714 C 144.366 38.714 144.121 38.959 144.121 39.261 L 144.121 40.081 C 144.121 40.383 144.366 40.628 144.668 40.628 Z" style="stroke-width: 1; fill: rgb(31, 31, 31);"/>
    <path d="M 164.63 38.714 L 163.811 38.714 C 163.508 38.714 163.264 38.959 163.264 39.261 L 163.264 40.081 C 163.264 40.383 163.508 40.628 163.811 40.628 L 164.63 40.628 C 164.932 40.628 165.177 40.383 165.177 40.081 L 165.177 39.261 C 165.177 38.959 164.932 38.714 164.63 38.714 Z" style="stroke-width: 1; fill: rgb(31, 31, 31);"/>
    <path d="M 117.211 20.754 L 147.056 20.754 C 147.323 20.754 147.692 20.601 147.881 20.413 L 163.807 4.487 C 163.995 4.298 163.932 4.144 163.665 4.144 L 133.819 4.144 C 133.552 4.144 133.183 4.297 132.995 4.487 L 117.07 20.413 C 116.881 20.6 116.944 20.754 117.211 20.754 Z" style="stroke-width: 1; fill: rgb(31, 31, 31);"/>
  </g>
</svg>